<?xml version="1.0" encoding="UTF-8" standalone="no"?>
<svg
   xmlns:dc="http://purl.org/dc/elements/1.1/"
   xmlns:cc="http://creativecommons.org/ns#"
   xmlns:rdf="http://www.w3.org/1999/02/22-rdf-syntax-ns#"
   xmlns:svg="http://www.w3.org/2000/svg"
   xmlns="http://www.w3.org/2000/svg"
   xmlns:sodipodi="http://sodipodi.sourceforge.net/DTD/sodipodi-0.dtd"
   xmlns:inkscape="http://www.inkscape.org/namespaces/inkscape"
   version="1.1"
   id="svg10"
   xml:space="preserve"
   width="666.66669"
   height="666.66669"
   viewBox="0 0 666.66669 666.66669"
   sodipodi:docname="logo.svg"
   inkscape:version="1.0.2-2 (e86c870879, 2021-01-15)"><metadata
     id="metadata16"><rdf:RDF><cc:Work
         rdf:about=""><dc:format>image/svg+xml</dc:format><dc:type
           rdf:resource="http://purl.org/dc/dcmitype/StillImage" /><dc:title></dc:title></cc:Work></rdf:RDF></metadata><defs
     id="defs14"><clipPath
       clipPathUnits="userSpaceOnUse"
       id="clipPath28"><path
         d="M 0,500 H 500 V 0 H 0 Z"
         id="path26" /></clipPath><clipPath
       clipPathUnits="userSpaceOnUse"
       id="clipPath1218"><path
         d="M 0,500 H 500 V 0 H 0 Z"
         id="path1216" /></clipPath></defs><sodipodi:namedview
     pagecolor="#ffffff"
     bordercolor="#666666"
     borderopacity="1"
     objecttolerance="10"
     gridtolerance="10"
     guidetolerance="10"
     inkscape:pageopacity="0"
     inkscape:pageshadow="2"
     inkscape:window-width="1920"
     inkscape:window-height="1001"
     id="namedview12"
     showgrid="false"
     inkscape:zoom="1.245"
     inkscape:cx="333.33334"
     inkscape:cy="192.77109"
     inkscape:window-x="-9"
     inkscape:window-y="-9"
     inkscape:window-maximized="1"
     inkscape:current-layer="g18" /><g
     id="g18"
     inkscape:groupmode="layer"
     inkscape:label="228727-P1ZKEN-936"
     transform="matrix(1.3333333,0,0,-1.3333333,0,666.66667)"><g
       id="g156"
       transform="translate(244.6255,332.034)"><path
         d="m 0,0 c 25.75,0 46.775,3.425 46.775,7.442 0,4.134 -21.025,7.559 -46.775,7.559 -25.75,0 -46.775,-3.425 -46.775,-7.559 C -46.775,3.425 -25.75,0 0,0"
         style="fill:#e6e7e8;fill-opacity:1;fill-rule:evenodd;stroke:none"
         id="path158" /></g><g
       id="g160"
       transform="translate(210.8434,344.0822)"><path
         d="m 0,0 c -1.299,-2.362 -0.827,-4.961 -0.472,-6.024 0.354,-1.063 13.347,3.662 13.583,4.488 C 13.584,0.827 2.008,3.78 0,0"
         style="fill:#f79466;fill-opacity:1;fill-rule:evenodd;stroke:none"
         id="path162" /></g><g
       id="g164"
       transform="translate(278.4077,344.0822)"><path
         d="M 0,0 C 1.299,-2.362 0.827,-4.961 0.472,-6.024 0.118,-7.087 -12.875,-2.362 -13.111,-1.536 -13.584,0.827 -2.008,3.78 0,0"
         style="fill:#f79466;fill-opacity:1;fill-rule:evenodd;stroke:none"
         id="path166" /></g><g
       id="g168"
       transform="translate(210.8434,344.0822)"><path
         d="m 0,0 c -0.118,-0.118 -0.236,-0.354 -0.236,-0.473 3.071,-1.063 6.496,-2.008 10.158,-2.716 1.772,0.827 3.071,1.417 3.189,1.653 C 13.584,0.827 2.008,3.78 0,0"
         style="fill:#d18762;fill-opacity:1;fill-rule:evenodd;stroke:none"
         id="path170" /></g><g
       id="g172"
       transform="translate(278.4077,344.0822)"><path
         d="m 0,0 c 0.118,-0.118 0.236,-0.354 0.236,-0.473 -3.071,-1.063 -6.496,-2.008 -10.158,-2.716 -1.772,0.827 -3.071,1.417 -3.189,1.653 C -13.584,0.827 -2.008,3.78 0,0"
         style="fill:#d18762;fill-opacity:1;fill-rule:evenodd;stroke:none"
         id="path174" /></g><g
       id="g176"
       transform="translate(220.6473,449.7992)"><path
         d="m 0,0 c -1.417,0.709 -2.008,2.48 -1.181,3.898 0.709,1.417 2.48,2.008 3.898,1.299 11.93,-6.26 13.347,-12.757 9.804,-19.489 -2.363,-4.607 -7.442,-9.096 -12.757,-13.702 -13.82,-12.049 -21.144,-29.176 -7.678,-33.783 3.78,-1.417 9.568,-9.213 15.474,-8.977 1.535,0 2.953,-1.181 2.953,-2.834 0.118,-1.536 -1.182,-2.835 -2.717,-2.953 -6.851,-0.237 -12.403,0.59 -16.773,2.362 -26.341,10.276 -9.922,37.444 4.961,50.555 4.843,4.252 9.45,8.268 11.458,12.048 C 9.331,-7.914 8.032,-4.134 0,0"
         style="fill:#b08e69;fill-opacity:1;fill-rule:evenodd;stroke:none"
         id="path178" /></g><g
       id="g180"
       transform="translate(220.2929,400.189)"><path
         d="m 0,0 c 0,0 -9.922,-15.474 -16.3,-28.703 -2.245,-2.481 -6.615,-14.411 -4.489,-17.718 5.788,-8.741 25.159,-12.875 44.059,-12.639 0.354,0 0.708,-0.118 1.063,-0.118 0.354,0 0.708,0.118 1.063,0.118 18.899,-0.236 38.152,3.898 43.94,12.639 2.244,3.307 -2.244,15.237 -4.37,17.718 C 58.587,-15.474 48.665,0 48.665,0 37.68,7.914 35.318,11.221 24.333,10.985 13.348,11.221 10.985,7.914 0,0"
         style="fill:#d9a871;fill-opacity:1;fill-rule:evenodd;stroke:none"
         id="path182" /></g><g
       id="g184"
       transform="translate(250.2953,341.1292)"><path
         d="m 0,0 c 3.189,0.118 6.378,0.236 9.568,0.591 6.496,3.543 14.174,9.095 16.3,14.528 1.772,4.371 1.536,9.45 -2.835,11.34 -5.433,2.362 -15.591,1.063 -15.591,1.063 0,0 0.354,-8.623 -2.717,-17.718 C 2.953,4.725 1.181,1.89 0,0 m -20.907,0.591 c 3.071,-0.355 6.378,-0.473 9.568,-0.591 -1.182,1.89 -3.072,4.725 -4.725,9.804 -3.071,9.095 -2.717,17.718 -2.717,17.718 0,0 -10.158,1.299 -15.71,-1.063 -4.37,-1.89 -4.488,-6.969 -2.717,-11.34 2.127,-5.433 9.686,-10.985 16.301,-14.528"
         style="fill:#c89e6e;fill-opacity:1;fill-rule:evenodd;stroke:none"
         id="path186" /></g><g
       id="g188"
       transform="translate(223.364,400.189)"><path
         d="m 0,0 c 0,0 -10.867,-39.334 -7.796,-46.421 3.78,-8.859 16.655,-13.111 29.058,-12.639 12.402,-0.472 25.277,3.78 29.057,12.639 C 53.39,-39.334 42.523,0 42.523,0 35.436,7.914 28.349,11.221 21.262,10.985 14.174,11.221 7.087,7.914 0,0"
         style="fill:#eec9a0;fill-opacity:1;fill-rule:evenodd;stroke:none"
         id="path190" /></g><g
       id="g192"
       transform="translate(250.4134,341.2473)"><path
         d="m 0,0 c 10.395,0.827 20.08,5.079 23.27,12.521 0.945,2.244 0.59,7.559 -0.473,13.938 -5.552,2.244 -15.474,0.945 -15.474,0.945 0,0 0.355,-8.623 -2.716,-17.718 C 2.953,4.725 1.063,1.89 0,0 M -34.373,26.459 C -35.436,20.08 -35.79,14.765 -34.845,12.521 -31.656,5.079 -21.97,0.827 -11.576,0 c -1.181,1.89 -2.953,4.725 -4.606,9.686 -3.071,9.095 -2.717,17.718 -2.717,17.718 0,0 -10.04,1.299 -15.474,-0.945"
         style="fill:#d9b892;fill-opacity:1;fill-rule:evenodd;stroke:none"
         id="path194" /></g><g
       id="g196"
       transform="translate(223.364,400.189)"><path
         d="m 0,0 c 0,0 -5.079,-18.663 -7.323,-32.601 4.488,-6.378 13.82,-12.639 28.585,-12.521 14.764,-0.118 24.096,6.143 28.584,12.521 C 47.602,-18.663 42.523,0 42.523,0 35.436,7.914 28.349,11.221 21.262,10.985 14.174,11.221 7.087,7.914 0,0"
         style="fill:#d9b892;fill-opacity:1;fill-rule:evenodd;stroke:none"
         id="path198" /></g><g
       id="g200"
       transform="translate(231.5143,372.0765)"><path
         d="m 0,0 c 0,0 -0.354,-8.623 2.717,-17.718 3.071,-9.095 6.614,-11.221 5.669,-12.875 -1.063,-1.772 -22.915,8.268 -26.813,18.19 -1.771,4.371 -1.653,9.45 2.717,11.34 C -10.158,1.299 0,0 0,0"
         style="fill:#d9a871;fill-opacity:1;fill-rule:evenodd;stroke:none"
         id="path202" /></g><g
       id="g204"
       transform="translate(236.5934,342.1923)"><path
         d="M 0,0 C 0,0 5.315,1.299 6.733,-1.772 8.268,-4.843 8.505,-6.851 7.087,-6.733 5.67,-6.497 5.079,-3.898 4.252,-5.552 3.307,-7.205 2.717,-8.032 2.008,-6.142 1.181,-4.134 0.945,-3.426 -0.354,-4.843 -1.772,-6.142 -2.008,-1.417 0,0"
         style="fill:#f79466;fill-opacity:1;fill-rule:evenodd;stroke:none"
         id="path206" /></g><g
       id="g208"
       transform="translate(257.7368,372.0765)"><path
         d="m 0,0 c 0,0 0.354,-8.623 -2.717,-17.718 -3.071,-9.095 -6.614,-11.221 -5.669,-12.875 0.944,-1.772 22.915,8.268 26.813,18.19 1.771,4.371 1.535,9.45 -2.835,11.34 C 10.158,1.299 0,0 0,0"
         style="fill:#d9a871;fill-opacity:1;fill-rule:evenodd;stroke:none"
         id="path210" /></g><g
       id="g212"
       transform="translate(252.5396,342.1923)"><path
         d="m 0,0 c 0,0 -5.197,1.299 -6.733,-1.772 -1.417,-3.071 -1.653,-5.079 -0.236,-4.961 1.417,0.236 2.008,2.835 2.835,1.181 0.945,-1.653 1.417,-2.48 2.244,-0.59 0.709,2.008 0.945,2.716 2.362,1.299 C 1.772,-6.142 2.126,-1.417 0,0"
         style="fill:#f79466;fill-opacity:1;fill-rule:evenodd;stroke:none"
         id="path214" /></g><g
       id="g216"
       transform="translate(231.5143,372.0765)"><path
         d="m 0,0 c 0,0 -0.236,-7.442 2.126,-15.828 -10.158,2.48 -16.418,8.505 -19.253,13.938 0.472,0.354 0.945,0.591 1.417,0.827 C -10.158,1.299 0,0 0,0"
         style="fill:#c89e6e;fill-opacity:1;fill-rule:evenodd;stroke:none"
         id="path218" /></g><g
       id="g220"
       transform="translate(257.7368,372.0765)"><path
         d="m 0,0 c 0,0 0.236,-7.442 -2.126,-15.828 10.158,2.48 16.418,8.505 19.135,13.938 -0.354,0.354 -0.827,0.591 -1.417,0.827 C 10.158,1.299 0,0 0,0"
         style="fill:#c89e6e;fill-opacity:1;fill-rule:evenodd;stroke:none"
         id="path222" /></g><g
       id="g224"
       transform="translate(223.9547,408.9298)"><path
         d="m 0,0 c -3.662,-10.749 -3.307,-20.435 -11.339,-26.695 -4.843,-3.78 4.488,-21.262 32.01,-20.907 27.522,-0.355 36.853,17.127 32.01,20.907 C 44.649,-20.435 45.004,-10.749 41.342,0 34.491,6.378 27.522,9.095 20.671,8.859 13.702,9.095 6.851,6.378 0,0"
         style="fill:#d9a871;fill-opacity:1;fill-rule:evenodd;stroke:none"
         id="path226" /></g><g
       id="g228"
       transform="translate(219.9386,372.6671)"><path
         d="m 0,0 c 2.953,0 5.315,2.362 5.315,5.315 0,2.953 -2.362,5.316 -5.315,5.316 -2.953,0 -5.315,-2.363 -5.315,-5.316 C -5.315,2.362 -2.953,0 0,0"
         style="fill:#e0b686;fill-opacity:1;fill-rule:evenodd;stroke:none"
         id="path230" /></g><g
       id="g232"
       transform="translate(269.3126,372.6671)"><path
         d="m 0,0 c 2.953,0 5.315,2.362 5.315,5.315 0,2.953 -2.362,5.316 -5.315,5.316 -2.953,0 -5.434,-2.363 -5.434,-5.316 C -5.434,2.362 -2.953,0 0,0"
         style="fill:#e0b686;fill-opacity:1;fill-rule:evenodd;stroke:none"
         id="path234" /></g><g
       id="g236"
       transform="translate(232.3411,384.5972)"><path
         d="M 0,0 C 1.181,0 2.244,0.945 2.244,2.126 2.244,3.425 1.181,4.37 0,4.37 -1.181,4.37 -2.244,3.425 -2.244,2.126 -2.244,0.945 -1.181,0 0,0"
         style="fill:#000000;fill-opacity:1;fill-rule:evenodd;stroke:none"
         id="path238" /></g><g
       id="g240"
       transform="translate(256.91,384.5972)"><path
         d="M 0,0 C 1.181,0 2.126,0.945 2.126,2.126 2.126,3.425 1.181,4.37 0,4.37 -1.299,4.37 -2.244,3.425 -2.244,2.126 -2.244,0.945 -1.299,0 0,0"
         style="fill:#000000;fill-opacity:1;fill-rule:evenodd;stroke:none"
         id="path242" /></g><g
       id="g244"
       transform="translate(219.348,424.2854)"><path
         d="m 0,0 c -5.552,0 -10.04,-6.615 -10.04,-14.647 0,-8.15 4.488,-14.647 10.04,-14.647 5.552,0 5.079,-6.024 5.079,2.008 C 5.079,-19.135 5.552,0 0,0"
         style="fill:#d9a871;fill-opacity:1;fill-rule:evenodd;stroke:none"
         id="path246" /></g><g
       id="g248"
       transform="translate(269.9031,424.2854)"><path
         d="m 0,0 c 5.552,0 10.04,-6.615 10.04,-14.647 0,-8.15 -4.488,-14.647 -10.04,-14.647 -5.552,0 -5.197,-6.024 -5.197,2.008 C -5.197,-19.135 -5.552,0 0,0"
         style="fill:#d9a871;fill-opacity:1;fill-rule:evenodd;stroke:none"
         id="path250" /></g><g
       id="g252"
       transform="translate(227.7345,377.7463)"><path
         d="M 0,0 C 2.244,2.362 9.686,3.425 16.891,3.425 24.096,3.425 31.538,2.362 33.664,0 36.263,-2.717 31.302,-15.474 16.891,-15.237 2.362,-15.474 -2.481,-2.717 0,0"
         style="fill:#eec9a0;fill-opacity:1;fill-rule:evenodd;stroke:none"
         id="path254" /></g><g
       id="g256"
       transform="translate(239.4283,362.2726)"><path
         d="m 0,0 c 0.709,-1.181 2.953,-1.654 5.197,-1.654 2.126,0 4.489,0.473 5.079,1.654 0.355,0.473 0.237,1.89 -0.236,3.425 -0.709,0 -1.535,0.237 -2.48,0.827 C 6.024,5.079 5.434,6.26 5.315,7.087 H 5.197 5.079 C 4.843,6.26 4.252,5.079 2.717,4.252 1.89,3.662 1.063,3.425 0.354,3.425 -0.236,1.89 -0.236,0.473 0,0"
         style="fill:#fefefe;fill-opacity:1;fill-rule:evenodd;stroke:none"
         id="path258" /></g><g
       id="g260"
       transform="translate(212.9695,387.1958)"><path
         d="m 0,0 c -0.354,0 -0.472,0.236 -0.354,0.473 0,0.354 0.236,0.472 0.472,0.472 0.118,-0.118 24.451,-5.67 27.758,-7.914 0.591,-0.354 0.709,-0.827 0.473,-1.181 v -0.118 c -0.473,-0.591 -2.835,-0.827 -5.906,-1.063 -4.725,-0.473 -11.222,-1.064 -14.529,-3.308 -0.236,-0.118 -0.591,-0.118 -0.709,0.118 -0.118,0.237 -0.118,0.591 0.118,0.709 3.544,2.362 10.277,2.953 15.12,3.426 2.716,0.236 4.843,0.472 5.079,0.708 0.118,0.118 -0.118,-0.118 -0.236,0 C 24.215,-5.552 0,-0.118 0,0"
         style="fill:#000000;fill-opacity:1;fill-rule:evenodd;stroke:none"
         id="path262" /></g><g
       id="g264"
       transform="translate(276.2816,387.1958)"><path
         d="m 0,0 c 0.236,0 0.473,0.236 0.354,0.473 0,0.354 -0.236,0.472 -0.59,0.472 0,-0.118 -24.333,-5.67 -27.64,-7.914 -0.591,-0.354 -0.827,-0.827 -0.473,-1.181 v -0.118 c 0.473,-0.591 2.835,-0.827 5.906,-1.063 4.607,-0.473 11.222,-1.064 14.529,-3.308 0.236,-0.118 0.472,-0.118 0.709,0.118 0.118,0.237 0,0.591 -0.118,0.709 -3.544,2.362 -10.277,2.953 -15.12,3.426 -2.835,0.236 -4.961,0.472 -5.079,0.708 -0.118,0.118 0.118,-0.118 0.236,0 C -24.214,-5.552 0,-0.118 0,0"
         style="fill:#000000;fill-opacity:1;fill-rule:evenodd;stroke:none"
         id="path266" /></g><path
       d="m 244.153,368.887 h 0.945 v 10.158 h -0.945 z"
       style="fill:#000000;fill-opacity:1;fill-rule:evenodd;stroke:none"
       id="path268" /><g
       id="g270"
       transform="translate(254.9019,369.8322)"><path
         d="m 0,0 c 0,0.236 0.236,0.354 0.591,0.236 0.236,0 0.354,-0.236 0.236,-0.59 -0.591,-2.126 -1.89,-3.308 -3.544,-3.898 -0.945,-0.355 -2.008,-0.473 -2.953,-0.355 -1.063,0.118 -2.008,0.473 -2.835,0.945 -0.708,0.473 -1.417,1.063 -1.771,1.89 -0.473,-0.827 -1.063,-1.417 -1.89,-1.89 -0.709,-0.472 -1.772,-0.827 -2.717,-0.945 -1.063,-0.118 -2.008,0 -2.953,0.355 -1.654,0.59 -3.071,1.772 -3.662,3.898 0,0.354 0.118,0.59 0.355,0.59 0.236,0.118 0.59,0 0.59,-0.236 0.473,-1.772 1.654,-2.835 2.953,-3.307 0.827,-0.355 1.772,-0.355 2.599,-0.355 0.827,0.118 1.653,0.355 2.362,0.827 1.063,0.591 1.772,1.654 1.89,2.835 v 0.118 0.118 h 0.118 v 0.118 h 0.118 0.118 v 0.119 h 0.119 0.118 V 0.354 h 0.118 0.118 V 0.236 0.118 h 0.118 V 0 c 0,-1.181 0.827,-2.244 1.89,-2.835 0.591,-0.472 1.417,-0.709 2.362,-0.827 0.827,0 1.654,0 2.481,0.355 C -1.654,-2.835 -0.591,-1.772 0,0"
         style="fill:#000000;fill-opacity:1;fill-rule:evenodd;stroke:none"
         id="path272" /></g><g
       id="g274"
       transform="translate(239.4283,381.6442)"><path
         d="M 0,0 C 0.709,1.181 2.953,1.654 5.197,1.654 7.323,1.654 9.686,1.181 10.276,0 11.103,-1.299 9.568,-7.205 5.197,-7.087 0.709,-7.205 -0.709,-1.299 0,0"
         style="fill:#f46f64;fill-opacity:1;fill-rule:evenodd;stroke:none"
         id="path276" /></g><g
       id="g278"
       transform="translate(214.1507,411.4104)"><path
         d="M 0,0 C 2.48,2.953 5.906,-6.379 6.378,-11.458 7.323,-19.608 -5.788,-7.323 0,0"
         style="fill:#eec9a0;fill-opacity:1;fill-rule:evenodd;stroke:none"
         id="path280" /></g><g
       id="g282"
       transform="translate(274.9823,411.4104)"><path
         d="M 0,0 C -2.362,2.953 -5.788,-6.379 -6.26,-11.458 -7.205,-19.608 5.788,-7.323 0,0"
         style="fill:#eec9a0;fill-opacity:1;fill-rule:evenodd;stroke:none"
         id="path284" /></g></g></svg>
